<mxfile host="app.diagrams.net" agent="Mozilla/5.0 (Macintosh; Intel Mac OS X 10_15_7) AppleWebKit/537.36 (KHTML, like Gecko) Chrome/136.0.0.0 Safari/537.36" version="24.7.5">
  <diagram name="Page-1" id="NGQ0Ob0LxQZE0MJomRUx">
    <mxGraphModel dx="1242" dy="785" grid="1" gridSize="10" guides="1" tooltips="1" connect="1" arrows="1" fold="1" page="1" pageScale="1" pageWidth="827" pageHeight="1169" math="0" shadow="0">
      <root>
        <mxCell id="0" />
        <mxCell id="1" parent="0" />
        <mxCell id="FPlZHUPvx3i0psNIRWSt-23" value="" style="rounded=0;whiteSpace=wrap;html=1;strokeColor=none;" vertex="1" parent="1">
          <mxGeometry x="57.5" y="5" width="590" height="520" as="geometry" />
        </mxCell>
        <mxCell id="FPlZHUPvx3i0psNIRWSt-2" value="" style="html=1;verticalLabelPosition=bottom;align=center;labelBackgroundColor=#ffffff;verticalAlign=top;strokeWidth=2;strokeColor=#0080F0;shadow=0;dashed=0;shape=mxgraph.ios7.icons.user;" vertex="1" parent="1">
          <mxGeometry x="130" y="200" width="30" height="30" as="geometry" />
        </mxCell>
        <mxCell id="FPlZHUPvx3i0psNIRWSt-3" value="User" style="text;html=1;align=center;verticalAlign=middle;whiteSpace=wrap;rounded=0;fontColor=#0B549D;" vertex="1" parent="1">
          <mxGeometry x="115" y="230" width="60" height="30" as="geometry" />
        </mxCell>
        <mxCell id="FPlZHUPvx3i0psNIRWSt-4" value="&lt;b&gt;Application&lt;/b&gt;" style="rounded=1;whiteSpace=wrap;html=1;fillColor=#dae8fc;strokeColor=#6c8ebf;fontColor=#0066CC;" vertex="1" parent="1">
          <mxGeometry x="270" y="185" width="120" height="60" as="geometry" />
        </mxCell>
        <mxCell id="FPlZHUPvx3i0psNIRWSt-5" value="&lt;b&gt;&lt;font color=&quot;#3399ff&quot;&gt;Cache&lt;/font&gt;&lt;/b&gt;" style="rounded=1;whiteSpace=wrap;html=1;fillColor=#DDEAFF;strokeColor=#6c8ebf;fontColor=#A9C4EB;" vertex="1" parent="1">
          <mxGeometry x="460" y="110" width="120" height="60" as="geometry" />
        </mxCell>
        <mxCell id="FPlZHUPvx3i0psNIRWSt-6" value="&lt;b&gt;Database&lt;/b&gt;" style="rounded=1;whiteSpace=wrap;html=1;fillColor=#e1d5e7;strokeColor=#9673a6;fontColor=#7241A3;" vertex="1" parent="1">
          <mxGeometry x="460" y="260" width="120" height="60" as="geometry" />
        </mxCell>
        <mxCell id="FPlZHUPvx3i0psNIRWSt-8" value="" style="endArrow=classic;html=1;rounded=0;" edge="1" parent="1">
          <mxGeometry width="50" height="50" relative="1" as="geometry">
            <mxPoint x="170" y="200" as="sourcePoint" />
            <mxPoint x="260" y="200" as="targetPoint" />
          </mxGeometry>
        </mxCell>
        <mxCell id="FPlZHUPvx3i0psNIRWSt-9" value="" style="endArrow=classic;html=1;rounded=0;entryX=0.848;entryY=-0.129;entryDx=0;entryDy=0;entryPerimeter=0;" edge="1" parent="1">
          <mxGeometry width="50" height="50" relative="1" as="geometry">
            <mxPoint x="254.12" y="226" as="sourcePoint" />
            <mxPoint x="170.0000000000001" y="226.13" as="targetPoint" />
          </mxGeometry>
        </mxCell>
        <mxCell id="FPlZHUPvx3i0psNIRWSt-10" value="" style="endArrow=classic;html=1;rounded=0;" edge="1" parent="1">
          <mxGeometry width="50" height="50" relative="1" as="geometry">
            <mxPoint x="390" y="170" as="sourcePoint" />
            <mxPoint x="440" y="150" as="targetPoint" />
          </mxGeometry>
        </mxCell>
        <mxCell id="FPlZHUPvx3i0psNIRWSt-11" value="" style="endArrow=classic;html=1;rounded=0;" edge="1" parent="1">
          <mxGeometry width="50" height="50" relative="1" as="geometry">
            <mxPoint x="390" y="255" as="sourcePoint" />
            <mxPoint x="440" y="280" as="targetPoint" />
          </mxGeometry>
        </mxCell>
        <mxCell id="FPlZHUPvx3i0psNIRWSt-12" value="1. User requests for data" style="text;html=1;align=center;verticalAlign=middle;whiteSpace=wrap;rounded=0;fontSize=10;fontStyle=2" vertex="1" parent="1">
          <mxGeometry x="160" y="155" width="105" height="30" as="geometry" />
        </mxCell>
        <mxCell id="FPlZHUPvx3i0psNIRWSt-13" value="2a. Fetches from cache. If not found in cache, go to (3)" style="text;html=1;align=center;verticalAlign=middle;whiteSpace=wrap;rounded=0;fontSize=10;fontStyle=2" vertex="1" parent="1">
          <mxGeometry x="350" y="95" width="105" height="30" as="geometry" />
        </mxCell>
        <mxCell id="FPlZHUPvx3i0psNIRWSt-14" value="3a. Fetches from DB" style="text;html=1;align=center;verticalAlign=middle;whiteSpace=wrap;rounded=0;fontSize=10;fontStyle=2" vertex="1" parent="1">
          <mxGeometry x="340" y="305" width="105" height="30" as="geometry" />
        </mxCell>
        <mxCell id="FPlZHUPvx3i0psNIRWSt-15" value="2b / 3c. Returns data. END" style="text;html=1;align=center;verticalAlign=middle;whiteSpace=wrap;rounded=0;fontSize=10;fontStyle=2" vertex="1" parent="1">
          <mxGeometry x="160" y="250" width="105" height="30" as="geometry" />
        </mxCell>
        <mxCell id="FPlZHUPvx3i0psNIRWSt-17" value="Fast but limited storage" style="text;html=1;align=center;verticalAlign=middle;whiteSpace=wrap;rounded=0;fontSize=10;" vertex="1" parent="1">
          <mxGeometry x="466" y="170" width="105" height="30" as="geometry" />
        </mxCell>
        <mxCell id="FPlZHUPvx3i0psNIRWSt-18" value="Source of truth for data, but slower" style="text;html=1;align=center;verticalAlign=middle;whiteSpace=wrap;rounded=0;fontSize=10;" vertex="1" parent="1">
          <mxGeometry x="475" y="325" width="105" height="30" as="geometry" />
        </mxCell>
        <mxCell id="FPlZHUPvx3i0psNIRWSt-19" value="" style="endArrow=classic;html=1;rounded=0;dashed=1;" edge="1" parent="1">
          <mxGeometry width="50" height="50" relative="1" as="geometry">
            <mxPoint x="520" y="250" as="sourcePoint" />
            <mxPoint x="520" y="205" as="targetPoint" />
          </mxGeometry>
        </mxCell>
        <mxCell id="FPlZHUPvx3i0psNIRWSt-20" value="3b. Returns data" style="text;html=1;align=center;verticalAlign=middle;whiteSpace=wrap;rounded=0;fontSize=10;fontStyle=2" vertex="1" parent="1">
          <mxGeometry x="530" y="215" width="105" height="30" as="geometry" />
        </mxCell>
        <mxCell id="FPlZHUPvx3i0psNIRWSt-21" value="&lt;span style=&quot;font-size: 10px;&quot;&gt;The application first checks for cache for the requested data. If it finds the data (a &quot;cache hit&quot;), it returns it quickly. If the data is not found (&quot;cache miss&quot;), the application fetches the data from the database instead, which is a slower process.&lt;/span&gt;&lt;br style=&quot;font-size: 10px;&quot;&gt;&lt;br style=&quot;font-size: 10px;&quot;&gt;&lt;span style=&quot;font-size: 10px;&quot;&gt;The application may update the cache with the data from the database, so that we will get a &quot;cache hit&quot; the next time.&lt;/span&gt;&lt;div style=&quot;font-size: 10px;&quot;&gt;&lt;br&gt;&lt;/div&gt;&lt;div style=&quot;font-size: 10px;&quot;&gt;The various&amp;nbsp;&lt;b&gt;caching strategies&amp;nbsp;&lt;/b&gt;determine how and when do these steps happen.&lt;/div&gt;" style="rounded=1;whiteSpace=wrap;html=1;fillColor=#DDEAFF;strokeColor=none;" vertex="1" parent="1">
          <mxGeometry x="80" y="400" width="545" height="100" as="geometry" />
        </mxCell>
        <mxCell id="FPlZHUPvx3i0psNIRWSt-22" value="&lt;b style=&quot;font-size: 16px;&quot;&gt;How caching works&lt;/b&gt;" style="text;html=1;align=center;verticalAlign=middle;whiteSpace=wrap;rounded=0;fontSize=16;" vertex="1" parent="1">
          <mxGeometry x="250" y="20" width="190" height="30" as="geometry" />
        </mxCell>
      </root>
    </mxGraphModel>
  </diagram>
</mxfile>
